<?xml version="1.0" encoding="UTF-8"?>
<svg version="1.1" xmlns="http://www.w3.org/2000/svg" width="64" height="64">
<path d="M0 0 C21.12 0 42.24 0 64 0 C64 21.12 64 42.24 64 64 C42.88 64 21.76 64 0 64 C0 42.88 0 21.76 0 0 Z " fill="#E72928" transform="translate(0,0)"/>
<path d="M0 0 C1.4540625 0.0309375 1.4540625 0.0309375 2.9375 0.0625 C5.87682631 5.74606459 8.39531663 11.46601801 10.6875 17.4375 C11.00332031 18.24316406 11.31914063 19.04882812 11.64453125 19.87890625 C13.9375 25.80489042 13.9375 25.80489042 13.9375 28.0625 C11.6275 28.0625 9.3175 28.0625 6.9375 28.0625 C6.4425 25.5875 6.4425 25.5875 5.9375 23.0625 C1.9775 23.0625 -1.9825 23.0625 -6.0625 23.0625 C-6.3925 24.7125 -6.7225 26.3625 -7.0625 28.0625 C-9.3725 28.0625 -11.6825 28.0625 -14.0625 28.0625 C-12.36820206 21.49507847 -10.01722402 15.26054176 -7.4375 9 C-7.12417725 8.2376001 -6.81085449 7.4752002 -6.48803711 6.68969727 C-3.72894959 0.07610101 -3.72894959 0.07610101 0 0 Z " fill="#FCF1F1" transform="translate(26.0625,17.9375)"/>
<path d="M0 0 C2.31 0 4.62 0 7 0 C7 9.24 7 18.48 7 28 C4.69 28 2.38 28 0 28 C0 18.76 0 9.52 0 0 Z " fill="#FAE6E5" transform="translate(43,18)"/>
<path d="M0 0 C0.99 0 1.98 0 3 0 C3 0.66 3 1.32 3 2 C9.93 2.495 9.93 2.495 17 3 C17 3.66 17 4.32 17 5 C12.05 5 7.1 5 2 5 C2 4.34 2 3.68 2 3 C1.34 3 0.68 3 0 3 C0 2.01 0 1.02 0 0 Z " fill="#E77674" transform="translate(0,0)"/>
<path d="M0 0 C0.66 0 1.32 0 2 0 C3.25664978 2.90600261 4 4.79604584 4 8 C2.02 8 0.04 8 -2 8 C-1.47731534 5.23723823 -0.89130413 2.6739124 0 0 Z " fill="#E63834" transform="translate(25,27)"/>
<path d="M0 0 C0.99 0 1.98 0 3 0 C3 0.66 3 1.32 3 2 C3.99 2 4.98 2 6 2 C6 2.99 6 3.98 6 5 C4.68 5 3.36 5 2 5 C2 4.34 2 3.68 2 3 C1.34 3 0.68 3 0 3 C0 2.01 0 1.02 0 0 Z " fill="#EE8D8B" transform="translate(0,0)"/>
<path d="M0 0 C2.31 0 4.62 0 7 0 C7.33 0.99 7.66 1.98 8 3 C5.36 2.67 2.72 2.34 0 2 C0 1.34 0 0.68 0 0 Z " fill="#E73332" transform="translate(3,0)"/>
</svg>
